# xmcd
#
# Track frame offsets:
#	150
#	24302
#	38055
#	59747
#	77297
#	91500
#	110910
#	130420
#	146220
#	162672
#	182202
#	200012
#
# Disc length: 3154
#
# Revision: 5
# Processed by: cddbd v1.5.1PL0 Copyright (c) Steve Scherf et al.
# Submitted via: tcd 2.0b
# Normalized: r4:TRMNUM
#
DISCID=aa0c500c
DTITLE=Mogollon - Live
DYEAR=1900
DGENRE=
TTITLE0=Copperhead Road
TTITLE1=Sharkey
TTITLE2=Wild West Hero
TTITLE3=Mossback
TTITLE4=(Me And The Boys) Down On The Rio Grande
TTITLE5=I Won't See Blue 'Til It Rains
TTITLE6=The Ride
TTITLE7=They Never Made It To Memphis
TTITLE8=The Great Divide
TTITLE9=Southern Ways
TTITLE10=C'est La Vie
TTITLE11=Orange Blossom Special
EXTD=
EXTT0=
EXTT1=
EXTT2=
EXTT3=
EXTT4=
EXTT5=
EXTT6=
EXTT7=
EXTT8=
EXTT9=
EXTT10=
EXTT11=
PLAYORDER=
